<svg xmlns="http://www.w3.org/2000/svg" viewBox="0 0 400 200" width="400" height="200">
  <defs>
    <linearGradient id="goldGrad" x1="0%" y1="0%" x2="100%" y2="100%">
      <stop offset="0%" style="stop-color:#f5e6a3;stop-opacity:1" />
      <stop offset="30%" style="stop-color:#c9a96e;stop-opacity:1" />
      <stop offset="60%" style="stop-color:#f0d080;stop-opacity:1" />
      <stop offset="100%" style="stop-color:#a07840;stop-opacity:1" />
    </linearGradient>
    <linearGradient id="goldGrad2" x1="0%" y1="0%" x2="100%" y2="0%">
      <stop offset="0%" style="stop-color:#a07840;stop-opacity:1" />
      <stop offset="50%" style="stop-color:#f0d080;stop-opacity:1" />
      <stop offset="100%" style="stop-color:#a07840;stop-opacity:1" />
    </linearGradient>
    <filter id="glow">
      <feGaussianBlur stdDeviation="2" result="coloredBlur"/>
      <feMerge>
        <feMergeNode in="coloredBlur"/>
        <feMergeNode in="SourceGraphic"/>
      </feMerge>
    </filter>
  </defs>
  <rect width="400" height="200" fill="#0a0a0a" rx="4"/>
  <rect x="8" y="8" width="384" height="184" fill="none" stroke="url(#goldGrad2)" stroke-width="0.5" rx="2"/>
  <rect x="12" y="12" width="376" height="176" fill="none" stroke="url(#goldGrad2)" stroke-width="0.3" rx="1"/>
  <g fill="url(#goldGrad)">
    <polygon points="18,18 28,18 18,28" opacity="0.8"/>
    <line x1="18" y1="18" x2="40" y2="18" stroke="url(#goldGrad)" stroke-width="0.5" fill="none"/>
    <line x1="18" y1="18" x2="18" y2="40" stroke="url(#goldGrad)" stroke-width="0.5" fill="none"/>
  </g>
  <g fill="url(#goldGrad)">
    <polygon points="382,18 372,18 382,28" opacity="0.8"/>
    <line x1="382" y1="18" x2="360" y2="18" stroke="url(#goldGrad)" stroke-width="0.5" fill="none"/>
    <line x1="382" y1="18" x2="382" y2="40" stroke="url(#goldGrad)" stroke-width="0.5" fill="none"/>
  </g>
  <g fill="url(#goldGrad)">
    <polygon points="18,182 28,182 18,172" opacity="0.8"/>
    <line x1="18" y1="182" x2="40" y2="182" stroke="url(#goldGrad)" stroke-width="0.5" fill="none"/>
    <line x1="18" y1="182" x2="18" y2="160" stroke="url(#goldGrad)" stroke-width="0.5" fill="none"/>
  </g>
  <g fill="url(#goldGrad)">
    <polygon points="382,182 372,182 382,172" opacity="0.8"/>
    <line x1="382" y1="182" x2="360" y2="182" stroke="url(#goldGrad)" stroke-width="0.5" fill="none"/>
    <line x1="382" y1="182" x2="382" y2="160" stroke="url(#goldGrad)" stroke-width="0.5" fill="none"/>
  </g>
  <g transform="translate(200, 62)" filter="url(#glow)">
    <rect x="-14" y="0" width="28" height="36" rx="3" fill="url(#goldGrad)" opacity="0.9"/>
    <rect x="-6" y="-10" width="12" height="12" rx="1" fill="url(#goldGrad)" opacity="0.9"/>
    <rect x="-9" y="-18" width="18" height="9" rx="2" fill="url(#goldGrad)"/>
    <rect x="-10" y="4" width="4" height="20" rx="1" fill="#fff" opacity="0.15"/>
    <line x1="-14" y1="18" x2="14" y2="18" stroke="#0a0a0a" stroke-width="0.5" opacity="0.4"/>
  </g>
  <g transform="translate(200, 62)">
    <line x1="-60" y1="18" x2="-22" y2="18" stroke="url(#goldGrad2)" stroke-width="0.6"/>
    <circle cx="-62" cy="18" r="2" fill="url(#goldGrad)"/>
    <circle cx="-55" cy="18" r="1" fill="url(#goldGrad)" opacity="0.6"/>
  </g>
  <g transform="translate(200, 62)">
    <line x1="22" y1="18" x2="60" y2="18" stroke="url(#goldGrad2)" stroke-width="0.6"/>
    <circle cx="62" cy="18" r="2" fill="url(#goldGrad)"/>
    <circle cx="55" cy="18" r="1" fill="url(#goldGrad)" opacity="0.6"/>
  </g>
  <text x="200" y="130" font-family="Garamond, 'Cormorant Garamond', serif" font-size="26" font-weight="400" letter-spacing="6" text-anchor="middle" fill="url(#goldGrad)" filter="url(#glow)">ÉLÉGANCE</text>
  <line x1="80" y1="138" x2="320" y2="138" stroke="url(#goldGrad2)" stroke-width="0.5"/>
  <polygon points="200,133 204,137 200,141 196,137" fill="url(#goldGrad)"/>
  <circle cx="170" cy="137" r="1.5" fill="url(#goldGrad)" opacity="0.7"/>
  <circle cx="230" cy="137" r="1.5" fill="url(#goldGrad)" opacity="0.7"/>
  <text x="200" y="158" font-family="Garamond, 'Cormorant Garamond', serif" font-size="11" font-weight="300" letter-spacing="8" text-anchor="middle" fill="url(#goldGrad)" opacity="0.85">PARFUMÉE</text>
  <text x="200" y="175" font-family="Georgia, serif" font-size="7" font-weight="300" letter-spacing="3" text-anchor="middle" fill="#c9a96e" opacity="0.6">MAISON DE LUXE · DEPUIS 2025</text>
</svg>
